# xmcd
#
# Track frame offsets: 
#        150
#        13123
#        26371
#        40126
#        51933
#        67789
#        80656
#        93219
#        105869
#        120910
#        137655
#        152560
#        169457
#
# Disc length: 2468 seconds
#
# Revision: 0
# Processed by: cddbd v1.5.2PL0 Copyright (c) Steve Scherf et al.
# Submitted via: ExactAudioCopyFreeDBPlugin 1.0
#
DISCID=9409a20d
DTITLE=Pierre Perret - Irène
DYEAR=2011
DGENRE=Variété française
TTITLE0=Irène
TTITLE1=Feuille blanche
TTITLE2=Lire
TTITLE3=Le tombeur
TTITLE4=Tous les enfants sont mes enfants
TTITLE5=Papyvole
TTITLE6=Voir
TTITLE7=Bernard Pivot
TTITLE8=C'est ainsi qu'on vit à Paris
TTITLE9=La veuve
TTITLE10=La fille aux petits frissons
TTITLE11=Quelle époque on vit
TTITLE12=Femme
EXTD=Intégrale 1957 - 2011
EXTT0=
EXTT1=
EXTT2=
EXTT3=
EXTT4=
EXTT5=
EXTT6=
EXTT7=
EXTT8=
EXTT9=
EXTT10=
EXTT11=
EXTT12=
PLAYORDER=
